<?xml version="1.0" encoding="utf-8"?>
<!-- Generator: Adobe Illustrator 22.0.1, SVG Export Plug-In . SVG Version: 6.00 Build 0)  -->
<svg version="1.1" id="直播" xmlns="http://www.w3.org/2000/svg" xmlns:xlink="http://www.w3.org/1999/xlink" x="0px" y="0px"
	 viewBox="0 0 340.2 151.5" style="enable-background:new 0 0 340.2 151.5;" xml:space="preserve">
<style type="text/css">
	.st0{fill:#23ADE5;}
</style>
<g>
	<path class="st0" d="M95.4,111.9c-0.8-0.9-1.7-1.7-2.6-2.4c-2.8-2.1-5.7-3.9-8.9-5.2c-6.4-2.9-13-5.1-19.9-6.6
		c-7.8-1.9-15.7-2.9-23.7-2.9c-2.6,0-5.1,0.2-7.7,0.6c-1.3,0.2-1.4,0.1-1.5-1.1c-0.6-5.8-1.2-11.7-1.7-17.5c-0.5-5.9-1-12-1.4-17.9
		c-0.5-7.6-0.9-15.1-1.1-22.7c-0.2-8.6-0.1-17.3,0-25.9c0-0.7,0-1.3,0.1-2c0.2-2.4,0.1-4.8,0.2-7.2c0-1-0.2-1.1-1.2-1
		c-1.4,0.3-2.8,0.7-4.1,1.2C14.9,4.2,7.9,7.1,0.9,9.9c-0.6,0.1-1,0.7-0.9,1.2c0,0.2,0,0.2,0,0.3c1.3,6,2.5,12.2,3.6,18.3
		c1.4,7.5,2.7,15,3.8,22.6c0.7,4.5,1.4,9.2,2,13.7c0.7,4.7,1.3,9.5,1.9,14.3c0.5,4.3,1,8.6,1.5,12.9c0.6,4.6,1.1,9.3,1.7,14
		c0.4,4,0.8,7.9,1.2,11.9c0.6,5.5,1.1,11,1.7,16.5c0.4,4.7,0.8,9.5,1.2,14.2c0.1,1.3,0.3,1.6,1.6,1.6c1.5,0,3.1,0,4.6,0
		c2.1,0,4.2-0.1,6.3-0.2c6.9-0.4,13.8-1.3,20.6-2.6c9.5-1.7,18.6-4.7,27.2-9.2c5-2.5,9.6-5.7,13.5-9.8c2.4-2.4,4.1-5.3,5-8.6
		C98,117.8,97.9,114.5,95.4,111.9L95.4,111.9z M46.8,136.5L46.8,136.5c-1.2-8.6-2.4-17.2-3.6-26.1c8.7,2.7,17.2,5.7,25.6,9.4
		C67.5,121.8,50.4,134.9,46.8,136.5z"/>
	<path class="st0" d="M94.3,70.4c0.2,1,0.4,1.2,1.5,0.9c1.3-0.3,2.5-0.6,3.8-0.9c1.9-0.4,1.9-0.4,1.8-2.3c0-0.3,0-0.6,0-0.9
		c-0.5-4-0.9-7.9-1.4-11.9c-0.3-2.5-0.8-4.9-1.2-7.4c-0.2-1.2-0.4-1.3-1.5-1.1c-1.8,0.3-3.6,0.6-5.3,0.9c-1.5,0.3-1.5,0.3-1.3,1.8
		C91.8,56.4,93,63.3,94.3,70.4z"/>
	<path class="st0" d="M330.7,69.8c0,0.1,0,0.2,0,0.4c0,0.1,0,0.3,0,0.4c0.1,0.6,0.6,1,1.2,0.9c2,0.1,3.9,0.3,5.8,0.3
		c1.5,0,1.5,0,1.5-1.4c0-3.4,0-6.8,0-10.2l0,0c0-3.3,0-6.5,0-9.9c0-1.8,0.4-2.1-1.9-2.3c-1.9-0.2-3.8-0.3-5.6-0.3
		c-1.4,0-1.4,0-1.4,1.4c0,0.4,0,0.7,0,1.1C330.4,56.6,330.5,63.3,330.7,69.8z"/>
	<path class="st0" d="M265.4,62.2c0.5,2.8,1.1,5.5,1.5,8.3c0.1,0.7,0.4,1.1,1.2,0.9c1.6-0.4,3.2-0.7,4.8-1.1l0,0
		c0.5-0.1,0.9-0.6,0.9-1.1c0-0.4,0-0.8,0-1.2c-0.1-4-0.8-7.9-1.3-11.9c-0.3-2.8-0.9-5.4-1.3-8.2c-0.1-0.7-0.4-1.3-1.2-1.1
		c-2.4,0.4-4.7,0.8-7.1,1.1c0,0.2,0,0.4,0,0.6C263.8,53.1,264.6,57.6,265.4,62.2z"/>
	<path class="st0" d="M102.8,56.4c0.5,4,1,7.9,1.5,11.9c0.2,1.2,0.3,1.3,1.5,1.3c2-0.1,4-0.2,6-0.4c1.1-0.1,1.2-0.1,1.1-1.3
		c-0.5-5.3-1-10.8-1.6-16.1c-0.2-1.8-0.5-3.5-0.6-5.2c0-0.6-0.5-1.1-1.1-1.2c-1.2-0.2-2.3-0.3-3.5-0.2l0,0c-1.2,0-2.4,0-3.6,0.2
		c-0.1,0-0.3,0-0.4,0.1c-0.5,0.2-0.7,0.8-0.5,1.2C102.1,49.9,102.4,53.2,102.8,56.4z"/>
	<path class="st0" d="M274.8,51.5c0.7,5.6,1.5,11.2,2.1,16.8c0.2,1.6,0.5,1.4,1.7,1.4c1.7-0.1,3.4-0.3,5.1-0.3
		c1.9-0.1,2-0.2,1.7-2.1c0-0.1,0-0.1,0-0.2c-0.3-3.1-0.6-6-1-9.1c-0.4-3.8-0.8-7.5-1.1-11.2c0-0.7-0.5-1.2-1.2-1.3
		c-1.3-0.2-2.6-0.3-3.9-0.3c-0.8,0-1.9,0.1-3.1,0.2c-0.1,0-0.3,0-0.4,0.1c-0.6,0.2-0.9,0.8-0.7,1.4
		C274.4,48.3,274.6,49.9,274.8,51.5z"/>
	<path class="st0" d="M157.9,57.6c0.1,4.1,0.2,8.3,0.3,12.4c0,1.3,0.1,1.2,1.3,1.4c1.9,0.2,3.8,0.3,5.6,0.3c1.6,0,1.6,0,1.6-1.5
		c0-3.4,0-6.8,0-10.2l0,0c0-3.5,0-6.9,0-10.4c0-1.4-0.1-1.4-1.3-1.6c-2.1-0.3-4.2-0.4-6.3-0.4c-1.4,0-1.5,0-1.4,1.5
		C157.8,52,157.8,54.8,157.9,57.6z"/>
	<path class="st0" d="M167.8,140.8v-18.4l0,0c-0.1-8.1-0.1-16.2-0.3-24.3c-0.1-3,0-5.9-0.1-8.8c-0.1-2.7-0.2-5.2-0.4-7.9
		c-0.1-1.3-0.2-1.5-1.5-1.8c-1-0.3-2.1-0.4-3.2-0.5c-4.2-0.2-8.5-0.1-12.6,0.4c-1.6,0.2-1.8,0.4-1.6,2c0.3,3.8,0.7,7.6,1,11.4
		c0.3,3,0.5,5.8,0.8,8.8c0.4,4.3,0.9,8.8,1.3,13.1c0.4,4.2,0.8,8.5,1.2,12.7c0.4,4.6,0.9,9.2,1.3,13.8c0.1,1.5,0.1,1.6,1.6,1.4
		c2.6-0.3,5.1-0.2,7.8-0.2c1.3,0,2.5-0.1,3.8,0c0.2,0.1,0.4,0,0.6,0c0.5-0.2,0.8-0.7,0.6-1.2C167.8,141.2,167.8,141,167.8,140.8z"/>
	<path class="st0" d="M313.7,109.1c-0.3-3.3-0.5-6.5-0.8-9.8c-0.4-5.1-0.9-10.3-1.3-15.4c-0.3-3.6-0.5-7-0.8-10.6
		c-0.5-5.7-0.9-11.5-1.4-17.2c-0.3-3.6-0.5-7.1-0.8-10.7c-0.4-5.5-0.9-11.1-1.3-16.7c-0.3-3.4-0.5-6.8-0.7-10.2v-0.1
		c0-0.8-0.6-1.4-1.4-1.4c-0.5-0.1-1.1-0.1-1.6-0.1c-4.8,0-9.8,0.5-14.5,1.4c-1.2,0.2-1.2,0.2-1,1.4c1.2,6.5,2.4,13.1,3.4,19.8
		c0.9,6.2,1.8,12.4,2.7,18.7c0.6,4.1,1.1,8,1.6,12.1c0.6,4.5,1.1,9.1,1.6,13.6c0.4,3.7,0.8,7.2,1.2,10.9c0.4,3.9,0.9,7.7,1.3,11.6
		c0.4,4.2,0.8,8.4,1.2,12.6c0.5,4.7,0.9,9.6,1.3,14.3c0.1,1.6,0.1,1.6,1.8,1.6c2.6,0.1,5.1,0,7.7,0.3c1.4,0.1,2.8,0.1,4.1,0
		c-0.3-4-0.6-7.7-1-11.5C314.6,118.8,314.1,113.9,313.7,109.1z"/>
	<path class="st0" d="M321.6,72c1.4-0.1,2.8-0.2,4.2-0.4c1.5-0.2,1.6-0.3,1.6-1.7c0-2.9,0-5.6,0-8.5c0-4.1,0-8.1-0.3-12.2
		c-0.1-1.2-0.1-1.3-1.3-1.3c-2-0.1-4,0.3-6,0.4c-0.1,0-0.2,0-0.3,0c-0.4,0.1-0.7,0.6-0.6,1c0,0.4,0,0.7,0,1.1
		c0.2,3.1,0.5,6.2,0.7,9.3c0.3,3.8,0.5,7.5,0.8,11.3c0,0.2,0,0.3,0,0.5C320.6,71.9,321.1,72.2,321.6,72z"/>
	<path class="st0" d="M121.3,137c-0.3-2.9-0.7-5.7-1-8.6c-0.4-4.1-0.8-8.1-1.2-12.1c-0.6-5.9-1.4-11.8-2-17.7
		c-0.7-6-1.4-12.2-2.5-18.1c-0.7-3.9-0.7-3.9-5-3.9l0,0c-4.5,0.3-9,1-13.3,2.1c-0.9,0.2-1,0.6-0.8,1.4c0.9,4.3,1.6,8.8,2.5,13.1
		c2.2,11,4.3,21.8,6.5,32.8c0.9,4.5,1.8,9.1,2.8,13.6c0.3,1.3,0.3,1.3,1.6,1.2c1-0.1,2-0.2,3-0.3c2.8-0.3,5.5-0.5,8.2-0.8
		c1.4-0.1,1.5-0.3,1.4-1.7C121.4,137.7,121.4,137.3,121.3,137z"/>
	<path class="st0" d="M340.2,140.7v-17.4c-0.2-7.7,0-14.6-0.3-21.6c-0.2-6.5-0.1-13-0.5-19.6c-0.1-2.2-0.2-2.4-2.4-2.8
		c-2.5-0.3-5-0.5-7.6-0.4c-2.6,0-5,0.3-7.6,0.5c-1.5,0.1-1.6,0.3-1.5,1.6c0.2,2.9,0.4,5.7,0.7,8.6c0.5,5.7,1.1,11.5,1.7,17.2
		c0.5,5.5,1,11.1,1.5,16.7c0.6,6,1.2,12.1,1.7,18.1c0.1,1.3,0.1,1.4,1.5,1.3c2.1-0.2,4.1-0.2,6.1-0.2c1.8,0,3.7,0,5.4,0
		c0.1,0,0.3,0,0.4,0c0.5-0.1,0.7-0.6,0.6-1C340.2,141.3,340.2,141,340.2,140.7z"/>
	<path class="st0" d="M293.4,131.6c-0.4-4.1-0.9-8-1.3-12.1c-0.4-3.9-0.8-7.7-1.2-11.6c-0.5-4.7-1.1-9.6-1.7-14.3
		c-0.5-4.4-1.1-9-1.9-13.4c-0.7-3.6-0.8-3.7-4.8-3.7c-4.6,0.3-9.2,1-13.6,2.1c-0.1,0-0.2,0-0.2,0c-0.5,0.2-0.7,0.7-0.5,1.1
		c0.2,1.1,0.3,2.1,0.5,3.2c1.5,7.5,2.9,15.1,4.3,22.6c2.3,11.4,4.4,22.6,6.7,34c0.3,1.3,0.3,1.3,1.7,1.2c2.6-0.2,5.1-0.5,7.7-0.8
		c1.4-0.2,2.8-0.3,4.1-0.5c0.1,0,0.2,0,0.3,0c0.4-0.2,0.7-0.6,0.5-1.1C293.9,136.3,293.6,133.9,293.4,131.6z"/>
	<path class="st0" d="M142.3,122c-0.4-4.6-0.9-9.2-1.3-13.8c-0.4-4.9-0.8-10-1.2-14.9c-0.5-6.5-1.1-12.9-1.7-19.5
		c-0.5-5.9-1-11.9-1.4-17.7c-0.5-6.4-1-12.8-1.4-19.3c-0.4-5.9-0.8-12-1.2-17.9c-0.1-1.3-0.3-1.7-1.7-1.8c-1.1-0.1-2.1,0-2.9,0
		c-2.3-0.1-4.5,0.1-6.8,0.4c-2.2,0.2-4.2,0.6-6.4,0.9c-0.2,0-0.3,0-0.4,0.1c-0.4,0.2-0.6,0.7-0.4,1.1c0.3,1.4,0.6,2.8,0.8,4.1
		c1.1,6.1,2.2,12.3,3.1,18.4c0.7,4.5,1.4,9.1,2,13.5c0.7,4.9,1.3,9.9,1.9,14.8c0.4,3.4,0.8,6.7,1.2,10.2c0.4,3.7,0.9,7.3,1.3,11
		c0.4,3.8,0.8,7.5,1.2,11.2c0.4,4.1,0.9,8.2,1.3,12.3c0.4,4.5,0.7,9,1.2,13.5c0.2,1.7,0.1,3.4,0.4,5c0,0.1,0,0.2,0,0.2
		c0.1,0.6,0.6,1,1.2,0.9c3.7-0.1,7.3,0.3,11,0.4c1.4,0,1.5-0.1,1.4-1.3C143,129.9,142.6,126,142.3,122z"/>
	<path class="st0" d="M266.6,110.5L266.6,110.5c-2.2-1.9-4.6-3.5-7.2-4.8c-5.7-3-11.8-5.2-17.9-6.8c-9.1-2.6-18.5-4-28-4.1
		c-2.7,0-5.4,0.2-8.1,0.6c-1.5,0.2-1.6,0.2-1.8-1.3c-0.3-2.8-0.6-5.4-0.9-8.2c-0.5-5-1-10.1-1.4-15.1c-0.5-7-1.1-13.9-1.4-20.9
		c-0.3-5.2-0.6-10.6-0.5-15.8c0-1.1,0-2.3-0.1-3.4c-0.2-4.4-0.2-8.8,0-13.2c0.3-5.4,0-10.8,0.5-16.2c0.1-1-0.2-1.2-1.1-1.1
		c-1.1,0.2-2.1,0.5-3.1,0.9c-7.5,2.7-14.7,6.1-22.2,9c-0.6,0.1-0.9,0.6-0.9,1.2c0,0.1,0,0.2,0.1,0.3c0.1,0.3,0.2,0.7,0.2,1
		c1.7,7.8,3.2,15.6,4.4,23.5c0.9,5.5,1.9,11.1,2.7,16.7c0.7,4.2,1.3,8.6,1.9,12.8c0.6,4.1,1.1,8,1.6,12.1c0.6,4.3,1.1,8.6,1.6,12.9
		c0.4,3.6,0.8,7.1,1.2,10.7c0.4,3.8,0.9,7.6,1.3,11.4c0.4,4.1,0.8,8.1,1.2,12.1c0.4,4.3,0.9,8.8,1.3,13.1c0.4,4.1,0.8,8.3,1.1,12.4
		c-0.1,0.6,0.4,1.2,1,1.2c0.1,0,0.2,0,0.3,0c1.6,0,3.1,0,4.2,0c3.4,0.1,6.7,0,10.1-0.4c5.6-0.5,11.4-1.3,16.9-2.3
		c10.2-1.8,20.1-5.2,29.2-10.1c4.7-2.5,9-5.7,12.5-9.6c2.3-2.4,3.9-5.3,4.6-8.6C270.9,116.7,269.6,112.7,266.6,110.5z M240.9,120.6
		L240.9,120.6c-0.9,0.9-1.8,1.7-2.8,2.5c-5.7,4.5-11.8,8.8-17.7,13c-0.3,0.3-0.6,0.4-1,0.3c-1.2-8.6-2.4-17.1-3.6-25.7
		c0.6-0.2,1.3-0.1,1.9,0.2c6.6,2,12.9,4.4,19.4,7c1.2,0.5,2.4,1.1,3.6,1.6C241.3,119.8,241.4,120.2,240.9,120.6z"/>
	<path class="st0" d="M149,72c1.6-0.2,3.2-0.3,4.7-0.4l0,0c0.6,0,1.1-0.6,1-1.2c0.2-2.2,0.3-4.4,0.3-6.6c-0.1-3.8-0.2-7.9-0.3-12.1
		c0-0.8,0-1.7-0.1-2.5c-0.1-1.2-0.2-1.3-1.4-1.3c-2.1-0.1-4.1,0.3-6.1,0.4c-0.1,0-0.2,0-0.3,0c-0.4,0.1-0.6,0.5-0.5,0.9
		c0.1,1,0.2,2,0.3,3c0.3,4.1,0.5,8.2,0.9,12.3c0.2,2.2,0.2,4.3,0.5,6.5C148,71.8,148.2,72.1,149,72z"/>
</g>
</svg>
